<svg width="32" height="32" viewBox="0 0 32 32" fill="none" xmlns="http://www.w3.org/2000/svg">
<path d="M16 32C24.8366 32 32 24.8366 32 16C32 7.16344 24.8366 0 16 0C7.16344 0 0 7.16344 0 16C0 24.8366 7.16344 32 16 32Z" fill="url(#paint0_radial_3200_67774)"/>
<path d="M10.1379 19.9994H7.99219C8.16735 23.3427 10.9699 26.249 15.94 26.249C20.8883 26.249 24.0412 23.5394 24.0412 20.043C24.0412 13.4001 13.9913 13.7715 13.9913 9.92565C13.9913 8.85492 14.8015 7.58751 16.6844 7.58751C18.7864 7.58751 21.2605 9.2264 21.4356 11.3242H23.5595C23.3405 7.93714 20.0344 5.57715 15.8305 5.57715C11.4735 5.57715 8.18924 8.11196 8.18924 11.6957C8.18924 18.5353 18.2391 17.6394 18.2391 21.8567C18.2391 23.1679 17.4289 24.2605 15.3927 24.2605C12.8529 24.2605 10.2911 22.4905 10.1379 19.9994ZM11.9333 10.4283C11.9333 15.629 21.8955 14.6019 21.8955 20.1523C21.8955 21.813 20.8007 23.2771 19.4871 23.6486C19.9468 23.2115 20.2971 22.2501 20.2971 21.3323C20.2971 16.1971 10.3131 16.8965 10.3131 11.6301C10.3131 9.86011 11.4516 8.43974 12.8747 8.0027C12.3274 8.65826 11.9333 9.51047 11.9333 10.4283Z" fill="white"/>
<defs>
<radialGradient id="paint0_radial_3200_67774" cx="0" cy="0" r="1" gradientUnits="userSpaceOnUse" gradientTransform="translate(16 32) rotate(-90) scale(32 38.4)">
<stop stop-color="#88C1DF"/>
<stop offset="1" stop-color="#5136C5"/>
</radialGradient>
</defs>
</svg>
