<svg width="20" height="20" viewBox="0 0 20 20" fill="none" xmlns="http://www.w3.org/2000/svg">
<g clip-path="url(#clip0_3692_53284)">
<path d="M10 7.91748C11.1501 7.91748 12.0825 8.84986 12.0825 10C12.0825 11.1501 11.1501 12.0825 10 12.0825C8.84986 12.0825 7.91749 11.1501 7.91748 10C7.91748 8.84986 8.84986 7.91748 10 7.91748Z" fill="#CCA158"/>
<path fill-rule="evenodd" clip-rule="evenodd" d="M10 0C15.5228 0 20 4.47715 20 10C20 15.5228 15.5228 20 10 20C4.47715 20 0 15.5228 0 10C0 4.47715 4.47715 0 10 0ZM13.4855 2.42839C12.143 1.80941 10.8334 2.99028 10.8333 4.46859V5.58186C10.8333 6.01173 10.4299 6.3265 10 6.3265C9.57013 6.3265 9.16667 6.01173 9.16667 5.58186V4.46859C9.16661 2.99028 7.85698 1.80941 6.51449 2.42839C4.7133 3.25887 3.25887 4.7133 2.42839 6.51449C1.80941 7.85698 2.99028 9.16661 4.46859 9.16667H5.58267C6.01254 9.16667 6.32731 9.57013 6.32731 10C6.32731 10.4299 6.01254 10.8333 5.58267 10.8333H4.46859C2.99028 10.8334 1.80934 12.1431 2.42839 13.4855C3.25887 15.2865 4.71337 16.7405 6.51449 17.5708C7.85702 18.1897 9.16659 17.0089 9.16667 15.5306V14.4173C9.16667 13.9875 9.57013 13.6727 10 13.6727C10.4299 13.6727 10.8333 13.9875 10.8333 14.4173V15.5306C10.8334 17.0089 12.143 18.1897 13.4855 17.5708C15.2866 16.7405 16.7411 15.2865 17.5716 13.4855C18.1907 12.1431 17.0097 10.8334 15.5314 10.8333H14.4174C13.9875 10.8333 13.6735 10.4299 13.6735 10C13.6735 9.57008 13.9875 9.16667 14.4174 9.16667H15.5314C17.0097 9.16661 18.1906 7.85698 17.5716 6.51449C16.7411 4.7133 15.2867 3.25887 13.4855 2.42839Z" fill="#CCA158"/>
</g>
<defs>
<clipPath id="clip0_3692_53284">
<rect width="20" height="20" fill="white"/>
</clipPath>
</defs>
</svg>
