<svg width="16" height="16" viewBox="0 0 16 16" fill="none" xmlns="http://www.w3.org/2000/svg">
<g clip-path="url(#clip0_3692_47036)">
<path fill-rule="evenodd" clip-rule="evenodd" d="M7.58301 0.192393C7.99125 0.157378 8.70498 0.202992 9.10645 0.253917C11.1884 0.50812 13.0804 1.58964 14.3555 3.25489C15.5575 4.79318 16.0911 6.75007 15.8359 8.68556C15.5696 10.7244 14.4831 12.4351 12.8652 13.6748H16L15.998 15.8203L9.71875 15.8193C9.74089 14.8953 9.72821 13.9229 9.73047 12.9951C11.0023 12.5757 12.0875 11.7243 12.7979 10.5889C12.3969 10.2342 11.9018 10.0203 11.4209 9.79689L11.9209 11.0068C11.5917 11.3003 10.9949 11.7227 10.625 11.999C10.7351 11.3886 11.0406 10.4353 11.2236 9.81153C10.3947 9.70767 10.3073 9.50592 9.73633 8.91603C9.29334 8.45839 8.83584 7.96041 8.375 7.52442C8.82903 8.49203 8.80289 8.79358 8.79004 9.82521C8.6207 9.4167 8.55324 9.10759 8.47559 8.67677C8.19111 8.98571 7.90242 9.29099 7.61035 9.59278C7.84239 9.17974 8.11733 8.78641 8.38281 8.39357C8.21905 8.17708 7.97965 7.91453 7.79688 7.70411L7.91797 6.20704C7.75208 6.43228 7.23946 7.29187 7.12695 7.37501L7.10059 7.26173L7.06152 7.26857C6.77934 7.58131 6.58988 7.97353 6.33203 8.31153C6.10437 8.61003 5.90419 8.83049 5.91504 9.21974L5.95996 9.25099C6.15007 9.15998 6.91731 8.52781 7.15137 8.34474L6.54297 10.627L6.87207 10.29C7.02279 10.1347 7.18628 9.94415 7.33301 9.78126C7.54019 10.6881 7.78095 11.6031 7.87891 12.5283C8.06845 11.139 7.90452 11.3752 8.5957 10.0586C9.37171 10.6351 9.77222 11.0772 10.4395 11.7764C10.131 11.5784 9.8006 11.2961 9.51172 11.0615C9.28496 11.3446 9.05439 11.706 8.83203 12.0029C8.54751 12.3829 8.23353 12.7698 7.97949 13.167C7.4624 12.4127 6.93078 11.7754 6.42969 10.9697C5.88758 11.1802 5.30957 11.3396 4.75391 11.5567C4.75641 11.5515 5.36257 10.3052 5.84375 9.42872C5.65645 9.07283 5.32431 8.70674 5.05859 8.39454C4.99491 8.89375 4.95192 9.39565 4.93066 9.89845C4.57428 10.1719 4.22085 10.4496 3.87109 10.7315C4.06906 10.3467 4.33857 9.7318 4.48926 9.33497C4.16164 9.51885 4.06743 9.59517 3.7041 9.70411C3.46953 9.95582 3.30805 10.1941 3.10938 10.4746C3.8948 11.7013 4.9083 12.4888 6.2793 12.9824C6.26326 13.9145 6.27212 14.8837 6.26953 15.8184L0 15.8174V13.6768L3.13477 13.6729C2.96516 13.5527 2.79989 13.4324 2.64551 13.293C-2.57505 8.57698 0.780818 0.578368 7.58301 0.192393ZM13.6201 7.23536C13.3832 4.42131 10.3907 2.0338 7.57812 2.4131C6.03826 2.5222 4.60826 3.25185 3.61621 4.43458C2.17711 6.12604 2.01817 8.15285 2.9209 10.1358C3.11973 9.85755 3.36977 9.48375 3.5791 9.22364C4.16852 9.01904 4.66256 8.35327 5.00977 7.84474L5.70117 8.57814C6.3784 7.63601 7.37486 6.3557 7.96484 5.41407L8.16211 5.69142C8.65894 6.42158 9.22745 7.30217 9.76172 7.99024C10.0159 7.79153 10.4264 7.48081 10.6367 7.23829C11.043 7.75373 11.6429 8.55395 12.001 9.09767C12.5416 9.16468 12.7872 9.667 13.0908 10.084C13.5035 9.0981 13.7113 8.31922 13.6201 7.23536ZM10.5781 7.77345C10.3612 7.9336 10.1473 8.08879 9.93848 8.25978C10.0845 8.64336 10.1927 8.98989 10.3242 9.37208L10.8564 9.57032C11.0397 9.63574 11.1306 9.65721 11.3223 9.69532C11.215 9.45078 10.6229 7.82219 10.5781 7.77345Z" fill="#CCA158"/>
</g>
<defs>
<clipPath id="clip0_3692_47036">
<rect width="16" height="16" fill="white"/>
</clipPath>
</defs>
</svg>
