<svg width="16" height="16" viewBox="0 0 16 16" fill="none" xmlns="http://www.w3.org/2000/svg">
<path d="M13.3333 13.0575L14.1953 12.1955L15.138 13.1382L12.6667 15.6095L10.1953 13.1382L11.138 12.1955L12 13.0575V10.6668H13.3333V13.0575Z" fill="currentColor"/>
<path d="M13.3333 3.3335C13.8638 3.3335 14.3723 3.54436 14.7474 3.91943C15.1225 4.29451 15.3333 4.80306 15.3333 5.3335V8.66683H14V5.3335C14 5.15669 13.9297 4.98717 13.8047 4.86214C13.6797 4.73712 13.5101 4.66683 13.3333 4.66683H2.66667C2.48986 4.66683 2.32034 4.73712 2.19532 4.86214C2.07029 4.98717 2.00001 5.15668 2.00001 5.3335V10.6668C2.00001 10.8436 2.07029 11.0132 2.19532 11.1382C2.32034 11.2632 2.48986 11.3335 2.66667 11.3335H8.00001V12.6668H2.66667C2.13624 12.6668 1.62768 12.456 1.25261 12.0809C0.877537 11.7058 0.666672 11.1973 0.666672 10.6668V5.3335C0.666672 4.80306 0.877536 4.29451 1.25261 3.91943C1.62768 3.54436 2.13624 3.3335 2.66667 3.3335H13.3333Z" fill="currentColor" />
<path fill-rule="evenodd" clip-rule="evenodd" d="M8.00001 6.00016C9.10458 6.00016 10 6.89559 10 8.00016C10 9.10473 9.10458 10.0002 8.00001 10.0002C6.89544 10.0002 6.00001 9.10473 6.00001 8.00016C6.00001 6.89559 6.89544 6.00016 8.00001 6.00016ZM8.00001 7.3335C7.63182 7.3335 7.33334 7.63197 7.33334 8.00016C7.33334 8.36835 7.63182 8.66683 8.00001 8.66683C8.3682 8.66683 8.66667 8.36835 8.66667 8.00016C8.66667 7.63197 8.3682 7.3335 8.00001 7.3335Z" fill="currentColor"/>
<path d="M4.66667 8.66683H3.33334V7.3335H4.66667V8.66683Z" fill="currentColor" />
<path d="M12.6667 8.66683H11.3333V7.3335H12.6667V8.66683Z" fill="currentColor"/>
</svg>
