<svg width="16" height="16" viewBox="0 0 16 16" fill="none" xmlns="http://www.w3.org/2000/svg">
<path d="M9.33661 1.33545C12.2821 1.33545 14.6699 3.72326 14.6699 6.66878C14.6699 8.83184 13.3822 10.6942 11.5315 11.5309C10.6948 13.3814 8.83267 14.6688 6.66994 14.6688C3.72441 14.6688 1.33659 12.281 1.33659 9.33544C1.33659 7.17271 2.62394 5.3106 4.47415 4.47366C5.31121 2.62316 7.17354 1.33545 9.33661 1.33545ZM6.66994 5.33545C4.46079 5.33545 2.66993 7.12631 2.66993 9.33544C2.66993 11.5446 4.46079 13.3354 6.66994 13.3354C8.87907 13.3354 10.6699 11.5446 10.6699 9.33544C10.6699 7.12631 8.87907 5.33545 6.66994 5.33545ZM7.33661 6.00212V6.66878H8.66994V8.00211H6.00326C5.81917 8.00211 5.66993 8.15138 5.66993 8.33544C5.66993 8.49911 5.78785 8.63518 5.94335 8.66344L6.00326 8.66878H7.33661C8.25707 8.66878 9.00327 9.41498 9.00327 10.3354C9.00327 11.2559 8.25707 12.0021 7.33661 12.0021V12.6688H6.00326V12.0021H4.66993V10.6688H7.33661C7.52067 10.6688 7.66994 10.5195 7.66994 10.3354C7.66994 10.1718 7.55201 10.0357 7.39654 10.0075L7.33661 10.0021H6.00326C5.08279 10.0021 4.33659 9.25591 4.33659 8.33544C4.33659 7.41498 5.08279 6.66878 6.00326 6.66878V6.00212H7.33661ZM9.33661 2.66878C8.14761 2.66878 7.07974 3.18756 6.3471 4.0111C6.45423 4.00534 6.5617 4.00212 6.66994 4.00212C9.61547 4.00212 12.0033 6.38993 12.0033 9.33544C12.0033 9.44391 12 9.55158 11.9937 9.65844C12.8177 8.92591 13.3366 7.85798 13.3366 6.66878C13.3366 4.45964 11.5457 2.66878 9.33661 2.66878Z" fill="currentColor"/>
</svg>
