<svg width="16" height="16" viewBox="0 0 16 16" fill="none" xmlns="http://www.w3.org/2000/svg">
    <path d="M2.83301 8H1.2998C1.2998 11.7003 4.29969 14.7002 8 14.7002C10.5866 14.7002 12.8286 13.2332 13.9453 11.0869L14.8643 12.1084C13.4662 14.4393 10.9159 16 8 16C3.58172 16 0 12.4183 0 8C0 7.01639 0.178193 6.0745 0.50293 5.2041L2.83301 8ZM8 4.22656C10.0121 4.22656 11.6591 5.80144 11.6592 7.76855C11.6589 8.66244 10.941 9.74003 10.2061 10.0996H11.6758V11.5791L11.4199 11.5781L8.75488 11.5762L8.5 11.5752V9.83691L8.67969 9.78027C9.54901 9.5089 10.1755 8.71264 10.1758 7.78027C10.1758 6.62611 9.20842 5.67692 8.00586 5.67676C6.79795 5.67681 5.83594 6.62566 5.83594 7.78027C5.83622 8.71235 6.45596 9.50424 7.33203 9.78125L7.51172 9.83691V11.5781H4.32422V10.0996L5.79395 10.1084C4.87258 9.74892 4.34101 8.66419 4.34082 7.76855C4.3409 5.80144 5.98794 4.22657 8 4.22656ZM8 0C12.4183 0 16 3.58172 16 8C16 8.9834 15.8207 9.92467 15.4961 10.7949L13.167 8H14.7002C14.7002 4.29969 11.7003 1.2998 8 1.2998C5.41356 1.2998 3.17047 2.76606 2.05371 4.91211L1.13477 3.89062C1.54949 3.19927 2.06602 2.57613 2.66309 2.04102C2.7449 1.96769 2.82829 1.89612 2.91309 1.82617C3.42237 1.40606 3.98435 1.04775 4.58789 0.762695C4.79449 0.665122 5.00584 0.576036 5.22168 0.496094C6.08715 0.175527 7.02304 0 8 0Z" fill="currentColor" />
</svg>
