<svg width="16" height="16" viewBox="0 0 16 16" fill="none" xmlns="http://www.w3.org/2000/svg">
    <path d="M8 4.6665C8.36808 4.66654 8.66653 4.96511 8.66667 5.33317V7.33317H10.6667C11.0347 7.3332 11.3332 7.63178 11.3333 7.99984C11.3332 8.36791 11.0348 8.66647 10.6667 8.6665H8.66667V10.6665C8.66655 11.0346 8.36809 11.3331 8 11.3332C7.63191 11.3331 7.33345 11.0346 7.33333 10.6665V8.6665H5.33333C4.96524 8.66647 4.66678 8.36791 4.66667 7.99984C4.6668 7.63178 4.96525 7.3332 5.33333 7.33317H7.33333V5.33317C7.33346 4.96511 7.63192 4.66654 8 4.6665Z" fill="currentColor" />
    <path fill-rule="evenodd" clip-rule="evenodd" d="M7.99674 0.668457C8.29538 0.668475 8.5913 0.727298 8.86719 0.841634C9.14305 0.955989 9.39374 1.12388 9.60482 1.33512L14.6641 6.39437C14.8753 6.60544 15.0432 6.85678 15.1576 7.13265C15.2719 7.40852 15.3313 7.70447 15.3314 8.00309C15.3314 8.30171 15.2719 8.59767 15.1576 8.87353C15.0575 9.11495 14.9168 9.33727 14.7415 9.53044L14.6647 9.61117L9.60482 14.6711C9.39378 14.8823 9.14299 15.0495 8.86719 15.1639C8.59127 15.2783 8.29543 15.3377 7.99674 15.3377C7.69806 15.3377 7.40223 15.2783 7.1263 15.1639C6.85039 15.0495 6.59911 14.8824 6.38802 14.6711L1.32878 9.61117C1.11753 9.40009 0.949641 9.1494 0.835286 8.87353C0.720975 8.59768 0.662127 8.3017 0.662109 8.00309C0.662141 7.70451 0.720982 7.40848 0.835286 7.13265C0.949676 6.85676 1.11748 6.60545 1.32878 6.39437L6.38802 1.33512C6.59913 1.12382 6.85038 0.956009 7.1263 0.841634C7.40218 0.727315 7.69812 0.668465 7.99674 0.668457ZM7.99674 2.00179C7.87328 2.0018 7.75078 2.02614 7.63672 2.0734C7.52266 2.12068 7.41865 2.18985 7.33138 2.27718L2.27148 7.33773C2.18416 7.42497 2.11435 7.52904 2.06706 7.64307C2.0198 7.75708 1.99547 7.87967 1.99544 8.00309C1.99546 8.12649 2.01984 8.24912 2.06706 8.36312C2.11429 8.477 2.18366 8.58063 2.27083 8.66781L7.33138 13.7284C7.41864 13.8157 7.52266 13.8855 7.63672 13.9328C7.75076 13.98 7.8733 14.0044 7.99674 14.0044C8.12022 14.0044 8.2427 13.9801 8.35677 13.9328C8.47082 13.8855 8.57419 13.8157 8.66146 13.7284L13.722 8.66846C13.8093 8.5812 13.8792 8.47714 13.9264 8.36312C13.9737 8.2491 13.998 8.1265 13.998 8.00309C13.998 7.87971 13.9737 7.75706 13.9264 7.64307C13.891 7.55756 13.843 7.47737 13.7845 7.40609L13.722 7.33773L8.66146 2.27718C8.57428 2.19001 8.47065 2.12064 8.35677 2.0734C8.24274 2.02616 8.12017 2.00181 7.99674 2.00179Z" fill="currentColor"/>
</svg>
