<svg width="24" height="24" viewBox="0 0 24 24" fill="none" xmlns="http://www.w3.org/2000/svg">
<path fill-rule="evenodd" clip-rule="evenodd" d="M11.4792 2.01581C11.9896 1.97107 12.8818 2.02894 13.3835 2.09407C15.9859 2.41917 18.3506 3.80262 19.9443 5.93222C21.4467 7.8994 22.1139 10.4016 21.7949 12.8767C21.4619 15.4842 20.1032 17.6713 18.0807 19.2567L22 19.2575L21.9984 22L14.1493 21.9992C14.1769 20.8176 14.1603 19.5746 14.1631 18.3883C15.7529 17.8519 17.1098 16.7631 17.9977 15.3111C17.4965 14.8573 16.8778 14.5845 16.2765 14.2987L16.9007 15.8448C16.4892 16.2201 15.7437 16.7602 15.2812 17.1136C15.4189 16.333 15.8012 15.1147 16.0299 14.317C14.9934 14.1842 14.8843 13.9259 14.1704 13.1714C13.6167 12.5862 13.0448 11.9497 12.4688 11.3922C13.0362 12.6296 13.004 13.015 12.988 14.3345C12.7761 13.8119 12.692 13.4162 12.5949 12.865C12.2393 13.2602 11.8785 13.6513 11.5133 14.0373C11.8034 13.5091 12.1475 13.0061 12.4793 12.5037C12.2746 12.2268 11.9747 11.8912 11.7461 11.622L11.8983 9.70709C11.2421 10.6181 10.586 11.499 9.91504 12.3988C9.63044 12.7805 9.37971 13.0623 9.39339 13.5602L9.44954 13.5994C9.68718 13.483 10.647 12.6754 10.9396 12.4413L10.1787 15.3594L10.5905 14.9281C10.7789 14.7295 10.9833 14.4862 11.1667 14.2779C11.4256 15.4376 11.7254 16.6074 11.8478 17.7905C12.0847 16.0138 11.8807 16.3163 12.7446 14.6326C13.7148 15.3699 14.2158 15.9353 15.0501 16.8297C14.6642 16.5764 14.2502 16.2149 13.8888 15.9147C13.6055 16.2767 13.3187 16.7398 13.0409 17.1195C12.6852 17.6054 12.2915 18.1 11.974 18.6081C11.3276 17.6434 10.6635 16.8277 10.0371 15.7973C9.35943 16.0665 8.63701 16.2707 7.94238 16.5483C7.94578 16.5412 8.70408 14.9473 9.3055 13.8267C9.07135 13.3715 8.65459 12.9038 8.32243 12.5045C8.2428 13.1431 8.18948 13.7854 8.16292 14.4286C7.71752 14.7782 7.27599 15.1331 6.83887 15.4935C7.0863 15.0016 7.42275 14.2152 7.61117 13.7076C7.20185 13.9426 7.0846 14.0395 6.63053 14.1788C6.33711 14.5009 6.13518 14.8057 5.88672 15.1646C6.8685 16.7333 8.13537 17.7413 9.84912 18.3725C9.82908 19.5644 9.84014 20.8032 9.83691 21.9983L2 21.9967V19.2592L5.91846 19.2542C5.70657 19.1006 5.50016 18.947 5.30729 18.7688C-1.21853 12.7378 2.97635 2.50935 11.4792 2.01581ZM19.0256 11.0226C18.7295 7.42376 14.9885 4.37061 11.4727 4.85571C9.54782 4.99524 7.76074 5.92833 6.52067 7.44084C4.72183 9.60391 4.52232 12.1951 5.65072 14.7308C5.89924 14.3751 6.21264 13.8978 6.47428 13.5652C7.211 13.3035 7.82823 12.4521 8.26221 11.8018L9.12646 12.7393C9.973 11.5345 11.2186 9.89721 11.9561 8.69302L12.2026 9.0477C12.8237 9.98146 13.5343 11.1076 14.2021 11.9875C14.5198 11.7334 15.033 11.336 15.2959 11.0259C15.8038 11.685 16.554 12.7084 17.0016 13.4037C17.6774 13.4894 17.9837 14.1318 18.3631 14.6651C18.879 13.4043 19.1395 12.4085 19.0256 11.0226ZM15.2227 11.7103C14.9515 11.9151 14.6845 12.1135 14.4235 12.3322C14.606 12.8228 14.7408 13.2662 14.9053 13.7551L15.5701 14.0082C15.7994 14.0919 15.913 14.1201 16.1528 14.1688C16.0195 13.8581 15.2787 11.7726 15.2227 11.7103Z" fill="currentColor"/>
</svg>
