<svg width="32" height="32" viewBox="0 0 32 32" fill="none" xmlns="http://www.w3.org/2000/svg">
<path fill-rule="evenodd" clip-rule="evenodd" d="M12.9458 29V28.9362V27.5938V23.6974C8.95744 22.4418 6.07288 18.7946 6.07288 14.491C6.07288 9.14856 10.5176 4.81808 16 4.81808C21.4824 4.81808 25.9271 9.14856 25.9271 14.491C25.9271 18.7946 23.0426 22.4418 19.0542 23.6974V27.5938V28.9362V29H30V25.0548H24.5949C27.8468 22.5908 29.9362 18.7604 29.9362 14.459C29.9362 7.0256 23.6966 1 16 1C8.30336 1 2.06384 7.0256 2.06384 14.459C2.06384 18.7604 4.1532 22.5908 7.40512 25.0548H2V29H12.9458Z" fill="currentColor"/>
</svg>
