<svg width="32" height="32" viewBox="0 0 32 32" fill="none" xmlns="http://www.w3.org/2000/svg">
<path d="M16 8.00003C21.8911 8.00003 26.6667 12.7756 26.6667 18.6667C26.6667 24.5578 21.8911 29.3334 16 29.3334C10.109 29.3334 5.33337 24.5578 5.33337 18.6667C5.33337 12.7756 10.109 8.00003 16 8.00003ZM16 10.6667C11.5818 10.6667 8.00004 14.2484 8.00004 18.6667C8.00004 23.085 11.5818 26.6667 16 26.6667C20.4183 26.6667 24 23.085 24 18.6667C24 14.2484 20.4183 10.6667 16 10.6667ZM24 1.33336V5.33336L22.1822 6.85011C20.7074 6.07698 19.07 5.57183 17.3348 5.39935L17.3334 1.33203L24 1.33336ZM14.6667 1.33203L14.6663 5.39923C12.9312 5.57155 11.294 6.07651 9.81925 6.84942L8.00004 5.33336V1.33336L14.6667 1.33203Z" fill="#FEC475"/>
<path d="M14.8575 23.1508V17.8442H12.9908V16.0175C13.6575 15.9908 14.2131 15.7997 14.6575 15.4442C15.1108 15.0797 15.4042 14.5775 15.5375 13.9375H17.5242V23.1508H14.8575Z" fill="#FEC475"/>
</svg>
