<svg width="32" height="32" viewBox="0 0 32 32" fill="none" xmlns="http://www.w3.org/2000/svg">
<path d="M16 8.00003C21.8911 8.00003 26.6667 12.7756 26.6667 18.6667C26.6667 24.5578 21.8911 29.3334 16 29.3334C10.109 29.3334 5.33337 24.5578 5.33337 18.6667C5.33337 12.7756 10.109 8.00003 16 8.00003ZM16 10.6667C11.5818 10.6667 8.00004 14.2484 8.00004 18.6667C8.00004 23.085 11.5818 26.6667 16 26.6667C20.4183 26.6667 24 23.085 24 18.6667C24 14.2484 20.4183 10.6667 16 10.6667ZM24 1.33336V5.33336L22.1822 6.85011C20.7074 6.07698 19.07 5.57183 17.3348 5.39935L17.3334 1.33203L24 1.33336ZM14.6667 1.33203L14.6663 5.39923C12.9312 5.57155 11.294 6.07651 9.81925 6.84942L8.00004 5.33336V1.33336L14.6667 1.33203Z" fill="#CDCED4"/>
<path d="M12.16 22.6716C12.16 22.0138 12.2356 21.4849 12.3867 21.0849C12.5467 20.6849 12.8178 20.3071 13.2 19.9516C13.3689 19.8005 13.5511 19.6449 13.7467 19.4849C13.9511 19.3249 14.1867 19.1471 14.4534 18.9516C14.7289 18.756 14.9378 18.6093 15.08 18.5116C15.2223 18.4138 15.4667 18.2493 15.8134 18.0182C16.16 17.7782 16.36 17.6405 16.4134 17.6049C16.9467 17.2405 17.2134 16.836 17.2134 16.3916C17.2134 16.0982 17.12 15.8671 16.9334 15.6982C16.7467 15.5293 16.4756 15.4449 16.12 15.4449C15.6845 15.4449 15.3645 15.5782 15.16 15.8449C14.9289 16.1382 14.8134 16.556 14.8134 17.0982H12.3067C12.3067 16.5649 12.3378 16.1516 12.4 15.8582C12.4623 15.556 12.5823 15.2493 12.76 14.9382C13.0267 14.4582 13.4534 14.076 14.04 13.7916C14.6267 13.4982 15.3378 13.3516 16.1734 13.3516C17.3467 13.3516 18.2489 13.6227 18.88 14.1649C19.52 14.7071 19.84 15.4138 19.84 16.2849C19.84 17.1116 19.5911 17.7693 19.0934 18.2582C18.7556 18.5871 18.2223 18.9871 17.4934 19.4582C16.7734 19.9293 16.2934 20.2582 16.0534 20.4449V20.4716H19.7867V22.6716H12.16Z" fill="#CDCED4"/>
</svg>
