<svg width="32" height="32" viewBox="0 0 32 32" fill="none" xmlns="http://www.w3.org/2000/svg">
<path d="M16 8.00003C21.8911 8.00003 26.6667 12.7756 26.6667 18.6667C26.6667 24.5578 21.8911 29.3334 16 29.3334C10.109 29.3334 5.33337 24.5578 5.33337 18.6667C5.33337 12.7756 10.109 8.00003 16 8.00003ZM16 10.6667C11.5818 10.6667 8.00004 14.2484 8.00004 18.6667C8.00004 23.085 11.5818 26.6667 16 26.6667C20.4183 26.6667 24 23.085 24 18.6667C24 14.2484 20.4183 10.6667 16 10.6667ZM24 1.33336V5.33336L22.1822 6.85011C20.7074 6.07698 19.07 5.57183 17.3348 5.39935L17.3334 1.33203L24 1.33336ZM14.6667 1.33203L14.6663 5.39923C12.9312 5.57155 11.294 6.07651 9.81925 6.84942L8.00004 5.33336V1.33336L14.6667 1.33203Z" fill="#E68B0D"/>
<path d="M16.1867 23.2941C14.8356 23.2941 13.8178 23.0185 13.1333 22.4674C12.3778 21.863 12 20.9963 12 19.8674H14.52C14.5378 20.3119 14.6756 20.663 14.9333 20.9208C15.1911 21.1785 15.5689 21.3074 16.0667 21.3074C16.4667 21.3074 16.7733 21.2097 16.9867 21.0141C17.2089 20.8185 17.32 20.5697 17.32 20.2674C17.32 19.6008 16.84 19.2674 15.88 19.2674H15.3467V17.5341H15.8C16.7067 17.5341 17.16 17.223 17.16 16.6008C17.16 16.3341 17.0622 16.1208 16.8667 15.9608C16.6711 15.8008 16.4 15.7208 16.0533 15.7208C15.2622 15.7208 14.8222 16.1119 14.7333 16.8941H12.28C12.28 15.9697 12.6178 15.2141 13.2933 14.6274C13.9778 14.0408 14.9111 13.7474 16.0933 13.7474C17.1867 13.7474 18.0667 13.9874 18.7333 14.4674C19.4089 14.9385 19.7467 15.5919 19.7467 16.4274C19.7467 17.2008 19.3378 17.7785 18.52 18.1608V18.1874C19.4978 18.5874 19.9867 19.3208 19.9867 20.3874C19.9867 21.3385 19.6178 22.063 18.88 22.5608C18.1511 23.0497 17.2533 23.2941 16.1867 23.2941Z" fill="#E68B0D"/>
</svg>
