<svg width="24" height="24" viewBox="0 0 24 24" fill="none" xmlns="http://www.w3.org/2000/svg">
<path d="M12 7C14.7367 7 16.9774 9.14178 16.9775 11.8174C16.9774 13.0335 15.9998 14.4994 15 14.9883H17V17.001L16.6514 17L13.0273 16.9961L12.6807 16.9951V14.6309L12.9248 14.5537C14.1074 14.1845 14.9589 13.1015 14.959 11.833C14.959 10.2631 13.6436 8.9728 12.0078 8.97266C10.3649 8.97273 9.05664 10.2626 9.05664 11.833C9.05674 13.1011 9.89992 14.1779 11.0918 14.5547L11.3359 14.6309V17H7V14.9883L9 15C7.74642 14.5112 7.02259 13.0358 7.02246 11.8174C7.02257 9.14178 9.26327 7 12 7Z" fill="currentColor"/>
<path fill-rule="evenodd" clip-rule="evenodd" d="M12.0049 2.00293C17.5277 2.00293 22.0049 6.48013 22.0049 12.0029C22.0048 17.5257 17.5276 22.0029 12.0049 22.0029C6.48211 22.0029 2.00501 17.5257 2.00488 12.0029C2.00488 6.48014 6.48203 2.00294 12.0049 2.00293ZM12.0049 4.00293C7.58659 4.00294 4.00488 7.58471 4.00488 12.0029C4.00501 16.4211 7.58667 20.0029 12.0049 20.0029C16.4231 20.0029 20.0048 16.4211 20.0049 12.0029C20.0049 7.5847 16.4232 4.00293 12.0049 4.00293Z" fill="currentColor"/>
</svg>
