<svg width="24" height="24" viewBox="0 0 24 24" fill="none" xmlns="http://www.w3.org/2000/svg">
<rect width="24" height="24" rx="6" fill="#2C374C"/>
<path d="M13.7709 11.3429L14.9252 9.38417L18.0366 14.2302L18.0381 15.1602L18.0279 8.76059C18.0205 8.60416 17.9375 8.46106 17.805 8.37666L12.2034 5.15454C12.0724 5.09012 11.9062 5.09086 11.7754 5.15658C11.7577 5.16539 11.7411 5.17503 11.7253 5.18556L11.7057 5.19783L6.26852 8.34862L6.24745 8.35821C6.22032 8.37067 6.19286 8.38653 6.16716 8.40496C6.06404 8.47887 5.9956 8.5882 5.97346 8.71083C5.97012 8.72942 5.96766 8.74832 5.96653 8.76746L5.97508 13.9825L8.87312 9.49065C9.23802 8.89505 10.033 8.70319 10.7709 8.71362L11.6371 8.73648L6.53364 16.9209L7.13523 17.2672L12.2998 8.7448L14.5825 8.73651L9.4313 17.474L11.578 18.7087L11.8344 18.8562C11.9429 18.9003 12.0708 18.9026 12.1802 18.863L17.8605 15.5712L16.7745 16.2005L13.7709 11.3429ZM14.2113 17.686L12.0432 14.2831L13.3667 12.0372L16.2141 16.5253L14.2113 17.686Z" fill="#2D374B"/>
<path d="M12.0432 14.2831L14.2113 17.686L16.2142 16.5252L13.3667 12.0372L12.0432 14.2831Z" fill="#28A0F0"/>
<path d="M18.0381 15.1602L18.0366 14.2302L14.9253 9.38416L13.771 11.3428L16.7745 16.2005L17.8605 15.5712C17.967 15.4846 18.0315 15.3577 18.0382 15.2207L18.0381 15.1602Z" fill="#28A0F0"/>
<path d="M5.00005 16.0372L6.53362 16.9209L11.637 8.73651L10.7709 8.71366C10.0329 8.70323 9.23794 8.89509 8.87307 9.49069L5.97503 13.9826L5.00005 15.4806V16.0372Z" fill="white"/>
<path d="M14.5825 8.73645L12.2998 8.74474L7.13525 17.2672L8.94041 18.3065L9.43131 17.474L14.5825 8.73645Z" fill="white"/>
<path d="M19 8.72478C18.9809 8.24738 18.7224 7.81035 18.3175 7.55591L12.6425 4.29235C12.242 4.09069 11.7417 4.09043 11.3405 4.29222C11.293 4.31615 5.82167 7.48932 5.82167 7.48932C5.74595 7.52564 5.67301 7.56889 5.60441 7.61801C5.24297 7.87704 5.02266 8.27959 5.00003 8.72183V15.4806L5.975 13.9826L5.96649 8.76751C5.96762 8.74844 5.97002 8.72967 5.97342 8.71115C5.99546 8.58845 6.06397 8.47899 6.16712 8.40501C6.19285 8.38659 11.7577 5.16544 11.7754 5.1566C11.9062 5.09091 12.0724 5.09014 12.2034 5.15456L17.8049 8.37662C17.9375 8.46102 18.0205 8.60412 18.0279 8.76055V15.2207C18.0211 15.3577 17.967 15.4846 17.8605 15.5712L16.7745 16.2005L16.2141 16.5252L14.2113 17.6859L12.1802 18.863C12.0708 18.9025 11.9429 18.9003 11.8344 18.8562L9.43126 17.474L8.94036 18.3066L11.1 19.55C11.1714 19.5906 11.235 19.6266 11.2872 19.6559C11.3681 19.7013 11.4232 19.7316 11.4426 19.741C11.5961 19.8156 11.817 19.859 12.016 19.859C12.1984 19.859 12.3764 19.8255 12.5447 19.7595L18.4443 16.343C18.7829 16.0806 18.9821 15.6849 19 15.2563V8.72478Z" fill="#96BEDC"/>
</svg>
