<svg width="24" height="24" viewBox="0 0 24 24" fill="none" xmlns="http://www.w3.org/2000/svg">
<rect width="24" height="24" rx="6" fill="#814625"/>
<path d="M11.5525 11.3923C11.5393 11.3525 11.5301 11.3116 11.5229 11.2703C11.5197 11.2512 11.5158 11.2321 11.5115 11.2132C11.5021 11.1722 11.4917 11.1313 11.4804 11.0907C11.6675 10.8179 12.5621 9.39467 11.5441 8.48125C10.4143 7.46747 9.0942 8.79625 9.0942 8.79625L9.09829 8.80214C8.50496 8.62847 7.86161 8.60811 7.2357 8.79617C7.22798 8.78841 5.91221 7.47043 4.78575 8.48125C3.6589 9.49236 4.87571 11.1282 4.88205 11.1367C4.86911 11.1752 4.85865 11.2145 4.85175 11.2544C4.72984 11.9544 3.89996 12.1704 3.89996 13.3898C3.89996 14.6091 4.76813 15.612 6.54015 15.612H7.26728C7.27054 15.6165 7.57001 16.0252 8.18475 16.0247C8.75543 16.0243 9.1323 15.6155 9.13556 15.612H9.82939C11.6014 15.612 12.4696 14.6326 12.4696 13.3898C12.4696 12.2543 11.7498 11.9888 11.5525 11.3923Z" fill="white"/>
<path d="M20.0207 9.99917C20.0207 9.99917 20.1525 8.82396 19.1508 8.57143V8.1001H18.375V8.55966C17.3183 8.78481 17.4544 9.99917 17.4544 9.99917V10.2007C17.4544 10.2007 17.3182 11.4153 18.3754 11.6402L18.3752 12.6491C17.2614 12.8445 17.4022 14.0987 17.4022 14.0987V14.3002C17.4022 14.3002 17.2659 15.5146 18.3227 15.7397V16.1993H19.0985V15.728C20.1003 15.4754 19.9684 14.3002 19.9684 14.3002C20.0122 14.3002 20.0477 14.266 20.0477 14.2239V14.1751C20.0477 14.1329 20.0122 14.0987 19.9684 14.0987C19.9684 14.0987 20.0991 12.9337 19.1114 12.6744V11.6402H19.0998C20.1569 11.4153 20.0207 10.2007 20.0207 10.2007C20.0645 10.2007 20.1 10.1665 20.1 10.1243V10.0755C20.1 10.0334 20.0645 9.99917 20.0207 9.99917ZM19.3885 14.0987H19.3175C19.2738 14.0987 19.2383 14.1329 19.2383 14.1751V14.2239C19.2383 14.266 19.2738 14.3002 19.3175 14.3002H19.3885C19.3885 15.0292 19.1372 15.1519 19.0526 15.1726C19.0387 15.1759 19.0252 15.166 19.0252 15.1522V14.9198C19.0252 14.7914 18.9402 14.721 18.8552 14.6827C18.7478 14.6344 18.6227 14.6344 18.5153 14.6827C18.4303 14.721 18.3453 14.7914 18.3453 14.9198V15.1522C18.3453 15.1658 18.3321 15.176 18.3184 15.1726C18.2343 15.1523 17.982 15.0307 17.982 14.3002V14.0987C17.982 13.3697 18.2333 13.2471 18.3179 13.2265C18.3318 13.2231 18.3453 13.233 18.3453 13.2468V13.4792C18.3453 13.6076 18.4303 13.678 18.5153 13.7163C18.6227 13.7646 18.7478 13.7646 18.8552 13.7163C18.9402 13.678 19.0252 13.6076 19.0252 13.4792V13.2468C19.0252 13.2332 19.0384 13.223 19.0521 13.2263C19.1362 13.2466 19.3885 13.3684 19.3885 14.0987ZM19.3699 10.2007H19.4408C19.4408 10.931 19.1885 11.0528 19.1044 11.0731C19.0907 11.0764 19.0775 11.0662 19.0775 11.0526V10.8202C19.0775 10.6918 18.9925 10.6214 18.9075 10.5831C18.8001 10.5348 18.675 10.5348 18.5676 10.5831C18.4826 10.6214 18.3976 10.6918 18.3976 10.8202V11.0526C18.3976 11.0664 18.3841 11.0763 18.3702 11.0729C18.2857 11.0523 18.0343 10.9297 18.0343 10.2007V9.99917C18.0343 9.26875 18.2866 9.14698 18.3707 9.12673C18.3844 9.12344 18.3976 9.13367 18.3976 9.14721V9.37956C18.3976 9.50803 18.4826 9.57838 18.5676 9.61667C18.675 9.66505 18.8001 9.66505 18.9075 9.61667C18.9925 9.57838 19.0775 9.50803 19.0775 9.37956V9.14721C19.0775 9.13341 19.091 9.12347 19.1049 9.12685C19.1895 9.14751 19.4408 9.27017 19.4408 9.99917H19.3699C19.3261 9.99917 19.2905 10.0334 19.2905 10.0755V10.1243C19.2905 10.1665 19.3261 10.2007 19.3699 10.2007Z" fill="white"/>
<path d="M16.1385 12.0745C16.1385 12.0745 16.2755 10.8531 15.2087 10.6331V9.53582C16.2471 9.30145 16.1124 8.1001 16.1124 8.1001C16.1124 8.1001 15.53 8.1001 15.5324 8.1001C15.5324 8.83052 15.2802 8.95225 15.196 8.9725C15.1824 8.97583 15.1691 8.9656 15.1691 8.95206V8.71967C15.1691 8.59123 15.0841 8.52088 14.9991 8.4826C14.8917 8.43422 14.7666 8.43422 14.6592 8.4826C14.5742 8.52088 14.4892 8.59123 14.4892 8.71967V8.95206C14.4892 8.96586 14.4757 8.9758 14.4618 8.97242C14.3773 8.95176 14.1259 8.8291 14.1259 8.1001C14.1284 8.1001 13.546 8.1001 13.546 8.1001C13.546 8.1001 13.4062 9.34675 14.509 9.54793V10.6316C13.4346 10.8476 13.5721 12.0745 13.5721 12.0745V12.2759C13.5721 12.2759 13.4346 13.5028 14.509 13.7188V14.7521C13.4062 14.9534 13.546 16.1999 13.546 16.1999C13.546 16.1999 14.1283 16.1999 14.1259 16.1999C14.1259 15.4696 14.3782 15.3478 14.4623 15.3275C14.476 15.3242 14.4892 15.3344 14.4892 15.348V15.5804C14.4892 15.7088 14.5742 15.7792 14.6592 15.8175C14.7666 15.8658 14.8917 15.8658 14.9991 15.8175C15.0841 15.7792 15.1691 15.7088 15.1691 15.5804V15.348C15.1691 15.3342 15.1826 15.3243 15.1965 15.3277C15.2811 15.3483 15.5324 15.4709 15.5324 16.1999C15.53 16.1999 16.1124 16.1999 16.1124 16.1999C16.1124 16.1999 16.2471 14.9986 15.2087 14.7642V13.7173C16.2755 13.4973 16.1385 12.2759 16.1385 12.2759C16.1823 12.2759 16.2178 12.2417 16.2178 12.1996V12.1508C16.2178 12.1086 16.1823 12.0745 16.1385 12.0745ZM15.4876 12.276H15.5586C15.5586 13.0064 15.3063 13.1282 15.2222 13.1484C15.2085 13.1518 15.1953 13.1416 15.1953 13.128V12.8956C15.1953 12.7672 15.1103 12.6968 15.0253 12.6585C14.9179 12.6101 14.7928 12.6101 14.6854 12.6585C14.6004 12.6968 14.5154 12.7672 14.5154 12.8956V13.128C14.5154 13.1418 14.5019 13.1517 14.488 13.1483C14.4034 13.1276 14.1521 13.005 14.1521 12.276V12.0745C14.1521 11.3441 14.4043 11.2223 14.4885 11.2021C14.5021 11.1988 14.5154 11.209 14.5154 11.2226V11.4549C14.5154 11.5834 14.6004 11.6537 14.6854 11.692C14.7928 11.7404 14.9179 11.7404 15.0253 11.692C15.1103 11.6537 15.1953 11.5834 15.1953 11.4549V11.2226C15.1953 11.2088 15.2088 11.1988 15.2227 11.2022C15.3072 11.2229 15.5586 11.3455 15.5586 12.0745H15.4876C15.4438 12.0745 15.4083 12.1087 15.4083 12.1509V12.1996C15.4083 12.2418 15.4438 12.276 15.4876 12.276Z" fill="white"/>
</svg>
