<svg width="24" height="24" viewBox="0 0 24 24" fill="none" xmlns="http://www.w3.org/2000/svg">
<rect width="24" height="24" rx="6" fill="#FF0000"/>
<path d="M17.6309 8.45441H13.3377L12.3263 15.6197H14.3815L14.6245 13.8839H16.962C19.0727 13.8839 20.1258 13.0369 20.3641 11.2247C20.6118 9.35701 19.7277 8.45441 17.6309 8.45441ZM18.2835 11.0997C18.2002 11.8704 17.7582 12.206 16.8741 12.206H14.8629L15.1545 10.1346H17.2583C18.059 10.1323 18.3599 10.4054 18.2835 11.0997ZM8.27157 8.28546C5.4735 8.28546 4.00619 9.46116 3.66135 11.9792C3.30956 14.5551 4.51766 15.7863 7.38748 15.7863C10.2573 15.7863 11.6459 14.6106 11.9908 12.0926C12.3402 9.51671 11.1414 8.28546 8.27157 8.28546ZM9.90088 11.9815C9.7111 13.4025 8.99596 14.039 7.50088 14.039C6.09838 14.039 5.5707 13.4789 5.75353 12.0926C5.94331 10.6646 6.67234 10.0351 8.15353 10.0351C9.63473 10.0351 10.0814 10.6021 9.90088 11.9815Z" fill="#FAFAF9"/>
</svg>
