<svg width="24" height="24" viewBox="0 0 24 24" fill="none" xmlns="http://www.w3.org/2000/svg">
<g clip-path="url(#clip0_4274_567)">
<rect width="24" height="24" rx="6" fill="#E4DCFD"/>
<path d="M12 4V9.912L17 12.149L12 4Z" fill="#8FFCF3"/>
<path d="M12 4L7 12.148L12 9.913V4Z" fill="#CABCF8"/>
<path d="M12 15.98V20L17 13.08L12 15.98Z" fill="#CBA7F5"/>
<path d="M12 20V15.98L7 13.08L12 20Z" fill="#74A0F3"/>
<path d="M12 15.049L17 12.149L12 9.91302V15.049Z" fill="#CBA7F5"/>
<path d="M7 12.149L12 15.049V9.91302L7 12.149Z" fill="#74A0F3"/>
<path fill-rule="evenodd" clip-rule="evenodd" d="M12 15.048L7 12.148L12 4L17 12.148L12 15.048ZM7.33 11.912L11.918 4.437V9.872L7.33 11.912ZM7.262 12.116L11.918 10.048V14.816L7.262 12.116ZM12.078 10.048V14.816L16.731 12.116L12.078 10.048ZM12.078 9.872L16.666 11.912L12.078 4.437V9.872Z" fill="#202699"/>
<path fill-rule="evenodd" clip-rule="evenodd" d="M12 15.917L7 13.077L12 20L17 13.076L12 15.917ZM7.56 13.576L11.92 16.056V19.616L7.56 13.576ZM12.079 16.056V19.616L16.439 13.576L12.079 16.056Z" fill="#202699"/>
</g>
<defs>
<clipPath id="clip0_4274_567">
<rect width="24" height="24" rx="6" fill="white"/>
</clipPath>
</defs>
</svg>
