<svg width="16" height="16" viewBox="0 0 16 16" fill="none" xmlns="http://www.w3.org/2000/svg">
<g clip-path="url(#clip0_4693_13962)">
<circle cx="8" cy="8" r="8" fill="white"/>
<path fill-rule="evenodd" clip-rule="evenodd" d="M8.88449 12L12 12V10.8705H10.4554C11.3861 10.1688 11.9802 9.07268 11.9802 7.84294C11.9802 5.71763 10.198 4 8 4C5.80198 4 4.0198 5.71763 4.0198 7.84294C4.0198 9.07268 4.61386 10.1621 5.54455 10.8705H4V12H7.12871V11.9799V10.4829C5.9868 10.122 5.16832 9.08605 5.16832 7.85631C5.16832 6.3325 6.43564 5.09607 8.0066 5.09607C9.57096 5.09607 10.8449 6.3325 10.8449 7.85631C10.8449 9.08605 10.0198 10.1287 8.88449 10.4829L8.88449 12Z" fill="#708B96"/>
<path d="M8 0C12.4183 0 16 3.58172 16 8C16 12.4183 12.4183 16 8 16C3.58172 16 0 12.4183 0 8C0 3.58172 3.58172 0 8 0ZM8 1.33301C4.3181 1.33301 1.33301 4.3181 1.33301 8C1.33301 11.6819 4.3181 14.667 8 14.667C11.6819 14.667 14.667 11.6819 14.667 8C14.667 4.3181 11.6819 1.33301 8 1.33301Z" fill="url(#paint0_linear_4693_13962)"/>
</g>
<defs>
<linearGradient id="paint0_linear_4693_13962" x1="8" y1="0" x2="8" y2="16" gradientUnits="userSpaceOnUse">
<stop stop-color="#708B96"/>
<stop offset="1" stop-color="#C9D4CB"/>
</linearGradient>
<clipPath id="clip0_4693_13962">
<rect width="16" height="16" fill="white"/>
</clipPath>
</defs>
</svg>
